<svg width="179" height="224" viewBox="0 0 179 224" fill="none" xmlns="http://www.w3.org/2000/svg">
<path d="M29.1984 168.898H140.867C140.867 199.205 115.862 223.725 84.955 223.725C54.0482 223.725 29.1984 199.205 29.1984 168.898ZM127.665 58.1777V110.568L178.763 58.1777H127.665V58.1777ZM102.66 58.1777H67.5602V153.059H102.66V58.1777ZM52.1844 0H0V51.3243H52.1844V0ZM44.8848 90.3124C44.8848 80.1085 36.498 71.8844 26.0922 71.8844C15.6864 71.8844 7.29961 80.1085 7.29961 90.3124C7.29961 100.516 15.6864 108.74 26.0922 108.74C36.498 108.74 44.8848 100.516 44.8848 90.3124Z" fill="#F80A5B"/>
</svg>
